<?xml version="1.0" encoding="utf-8"?>
<!-- Generator: Adobe Illustrator 16.0.0, SVG Export Plug-In . SVG Version: 6.00 Build 0)  -->
<!DOCTYPE svg PUBLIC "-//W3C//DTD SVG 1.1//EN" "http://www.w3.org/Graphics/SVG/1.1/DTD/svg11.dtd">
<svg version="1.1" id="Layer_1" xmlns="http://www.w3.org/2000/svg" xmlns:xlink="http://www.w3.org/1999/xlink" x="0px" y="0px"
	 width="346.014px" height="162.254px" viewBox="0 0 346.014 162.254" enable-background="new 0 0 346.014 162.254"
	 xml:space="preserve">
<g>
	<path d="M7.924,18.322h1.855c0.748,0,1.365-0.105,1.857-0.311c0.49-0.203,0.912-0.535,1.267-0.986L24.656,2.148
		c0.491-0.627,1.006-1.062,1.547-1.311c0.538-0.242,1.223-0.369,2.049-0.369h6.832L20.737,18.174
		c-0.449,0.551-0.882,1.012-1.296,1.385c-0.41,0.375-0.853,0.68-1.325,0.912c0.649,0.238,1.234,0.572,1.754,1.002
		c0.52,0.434,1.024,0.982,1.518,1.652l14.786,19.939h-7.011c-0.942,0-1.645-0.131-2.106-0.395c-0.46-0.268-0.85-0.654-1.162-1.164
		L13.846,25.773c-0.395-0.51-0.834-0.879-1.324-1.104c-0.492-0.225-1.189-0.338-2.094-0.338H7.924v18.732H0V0.443h7.924V18.322z"/>
	<path d="M84.724,21.768c0,3.125-0.521,6.014-1.561,8.678c-1.043,2.66-2.505,4.961-4.39,6.908c-1.885,1.941-4.153,3.457-6.805,4.547
		c-2.651,1.092-5.588,1.639-8.809,1.639s-6.162-0.547-8.822-1.639c-2.66-1.09-4.938-2.605-6.832-4.547
		c-1.896-1.947-3.365-4.248-4.406-6.908c-1.039-2.664-1.562-5.553-1.562-8.678c0-3.119,0.522-6.014,1.562-8.674
		c1.041-2.66,2.51-4.965,4.406-6.908c1.895-1.945,4.172-3.463,6.832-4.553C56.998,0.545,59.939,0,63.16,0s6.157,0.551,8.809,1.648
		c2.651,1.1,4.92,2.619,6.805,4.551c1.885,1.936,3.347,4.234,4.39,6.895C84.203,15.754,84.724,18.648,84.724,21.768z M76.594,21.768
		c0-2.336-0.311-4.434-0.928-6.289c-0.619-1.854-1.51-3.43-2.666-4.727c-1.16-1.297-2.568-2.289-4.228-2.977
		c-1.659-0.686-3.53-1.031-5.612-1.031c-2.08,0-3.957,0.346-5.625,1.031c-1.672,0.688-3.088,1.68-4.257,2.977
		s-2.067,2.873-2.697,4.727c-0.627,1.855-0.94,3.953-0.94,6.289c0,2.338,0.313,4.434,0.94,6.291c0.63,1.855,1.528,3.426,2.697,4.711
		c1.169,1.287,2.585,2.275,4.257,2.963c1.668,0.686,3.545,1.031,5.625,1.031c2.082,0,3.953-0.346,5.612-1.031
		c1.659-0.688,3.067-1.676,4.228-2.963c1.156-1.285,2.047-2.855,2.666-4.711C76.283,26.201,76.594,24.105,76.594,21.768z"/>
	<path d="M119.174,27.352c0.285,0.676,0.564,1.361,0.842,2.049c0.273-0.707,0.559-1.404,0.854-2.092
		c0.294-0.688,0.607-1.348,0.941-1.977L134.42,1.738c0.154-0.297,0.317-0.531,0.484-0.707c0.168-0.178,0.354-0.305,0.561-0.385
		c0.207-0.078,0.437-0.127,0.692-0.146c0.256-0.021,0.56-0.031,0.913-0.031h5.979v42.596h-6.981v-27.51
		c0-0.512,0.016-1.07,0.043-1.68c0.03-0.609,0.075-1.229,0.135-1.857l-12.873,24.156c-0.295,0.549-0.678,0.977-1.149,1.281
		c-0.473,0.303-1.021,0.455-1.649,0.455h-1.09c-0.63,0-1.178-0.152-1.649-0.455c-0.473-0.305-0.854-0.732-1.149-1.281
		l-13.051-24.246c0.078,0.65,0.133,1.283,0.162,1.902c0.031,0.617,0.045,1.191,0.045,1.725v27.51h-6.982V0.469h5.98
		c0.355,0,0.658,0.01,0.913,0.031c0.254,0.02,0.487,0.068,0.692,0.146c0.207,0.08,0.398,0.207,0.574,0.385
		c0.178,0.176,0.345,0.41,0.501,0.707l12.728,23.654C118.58,26.021,118.891,26.672,119.174,27.352z"/>
	<path d="M179.856,27.352c0.284,0.676,0.565,1.361,0.84,2.049c0.276-0.707,0.561-1.404,0.855-2.092s0.609-1.348,0.941-1.977
		l12.609-23.594c0.156-0.297,0.32-0.531,0.484-0.707c0.166-0.178,0.355-0.305,0.562-0.385c0.205-0.078,0.438-0.127,0.689-0.146
		c0.258-0.021,0.562-0.031,0.914-0.031h5.98v42.596h-6.982v-27.51c0-0.512,0.014-1.07,0.045-1.68s0.074-1.229,0.133-1.857
		l-12.873,24.156c-0.293,0.549-0.679,0.977-1.15,1.281c-0.47,0.303-1.022,0.455-1.648,0.455h-1.089c-0.63,0-1.178-0.152-1.651-0.455
		c-0.471-0.305-0.854-0.732-1.147-1.281l-13.049-24.246c0.077,0.65,0.131,1.283,0.16,1.902c0.03,0.617,0.046,1.191,0.046,1.725
		v27.51h-6.982V0.469h5.98c0.354,0,0.658,0.01,0.911,0.031c0.257,0.02,0.488,0.068,0.695,0.146c0.205,0.08,0.396,0.207,0.573,0.385
		c0.177,0.176,0.343,0.41,0.501,0.707l12.725,23.654C179.264,26.021,179.572,26.672,179.856,27.352z"/>
	<path d="M259.081,21.768c0,3.125-0.52,6.014-1.561,8.678c-1.039,2.66-2.506,4.961-4.391,6.908c-1.883,1.941-4.15,3.457-6.801,4.547
		c-2.652,1.092-5.588,1.639-8.809,1.639c-3.223,0-6.162-0.547-8.824-1.639c-2.66-1.09-4.939-2.605-6.834-4.547
		c-1.896-1.947-3.363-4.248-4.404-6.908c-1.039-2.664-1.562-5.553-1.562-8.678c0-3.119,0.523-6.014,1.562-8.674
		c1.041-2.66,2.508-4.965,4.404-6.908c1.895-1.945,4.174-3.463,6.834-4.553C231.358,0.545,234.297,0,237.52,0
		c3.221,0,6.156,0.551,8.809,1.648c2.65,1.1,4.918,2.619,6.801,4.551c1.885,1.936,3.352,4.234,4.391,6.895
		C258.561,15.754,259.081,18.648,259.081,21.768z M250.952,21.768c0-2.336-0.309-4.434-0.928-6.289
		c-0.617-1.854-1.508-3.43-2.666-4.727c-1.16-1.297-2.566-2.289-4.229-2.977c-1.658-0.686-3.529-1.031-5.609-1.031
		c-2.082,0-3.959,0.346-5.627,1.031c-1.67,0.688-3.088,1.68-4.258,2.977c-1.168,1.297-2.066,2.873-2.693,4.727
		c-0.631,1.855-0.943,3.953-0.943,6.289c0,2.338,0.312,4.434,0.943,6.291c0.627,1.855,1.525,3.426,2.693,4.711
		c1.17,1.287,2.588,2.275,4.258,2.963c1.668,0.686,3.545,1.031,5.627,1.031c2.08,0,3.951-0.346,5.609-1.031
		c1.662-0.688,3.068-1.676,4.229-2.963c1.158-1.285,2.049-2.855,2.666-4.711C250.643,26.201,250.952,24.105,250.952,21.768z"/>
	<path d="M308.04,21.768c0,3.125-0.518,5.99-1.561,8.604c-1.039,2.613-2.504,4.859-4.389,6.744s-4.154,3.348-6.803,4.391
		c-2.654,1.043-5.588,1.559-8.811,1.559h-16.258V0.469h16.258c3.223,0,6.156,0.529,8.811,1.578c2.648,1.049,4.918,2.516,6.803,4.389
		c1.885,1.877,3.35,4.119,4.389,6.732C307.522,15.777,308.04,18.648,308.04,21.768z M299.94,21.768c0-2.336-0.314-4.434-0.943-6.289
		c-0.625-1.854-1.52-3.428-2.68-4.713c-1.158-1.287-2.566-2.271-4.229-2.959c-1.658-0.688-3.529-1.031-5.611-1.031H278.2v29.988
		h8.277c2.082,0,3.953-0.346,5.611-1.031c1.662-0.688,3.07-1.676,4.229-2.963c1.16-1.285,2.055-2.855,2.68-4.711
		C299.625,26.201,299.94,24.105,299.94,21.768z"/>
	<path d="M346.014,0.469v6.307h-18.881v11.811h14.875v6.1h-14.875v12.049h18.881v6.33h-26.865V0.469H346.014z"/>
</g>
<g>
	<path fill="#BDE1E4" d="M100.935,136.502c-0.82,0-1.23-0.512-1.23-1.537c0-0.762,0.344-1.598,1.033-2.506
		c0.688-0.908,1.105-1.508,1.252-1.801s0.533-0.748,1.164-1.363c0.629-0.615,1.188-0.98,1.67-1.098
		c0.484-0.117,1.473-0.25,2.967-0.396c4.57-0.439,9.551-0.688,14.941-0.746c5.859-8.877,10.635-15.469,14.326-19.775
		c-5.479,0.996-12.203,1.494-20.172,1.494c-10.811,0-16.215-2.418-16.215-7.252c0-1.377,0.695-2.578,2.088-3.604
		c1.391-1.025,3.148-1.537,5.273-1.537c2.123,0,3.186,0.248,3.186,0.746c0,0.264-0.33,0.396-0.988,0.396
		c-0.66,0-1.275,0.242-1.846,0.725c-0.572,0.484-0.857,0.945-0.857,1.385c0,0.674,1.436,1.172,4.307,1.494s7.301,0.482,13.293,0.482
		c5.99,0,12.488-0.541,19.49-1.625c2.314-1.904,4.488-3.34,6.525-4.307c2.035-0.967,4.109-1.451,6.219-1.451
		s3.486,0.469,4.131,1.406s0.973,1.641,0.988,2.109c0.014,0.469-0.33,1.084-1.033,1.846s-1.684,1.539-2.943,2.33
		c-2.959,1.816-6.842,2.9-11.646,3.252c-5.127,6.475-10.414,13.799-15.863,21.973c2.256,0.088,4.365,0.256,6.328,0.506
		c1.963,0.248,2.943,1.018,2.943,2.307c0,0.527-0.834,1.537-2.504,3.031c-0.176,0.205-0.396,0.514-0.66,0.924
		c-0.469,0.703-0.93,1.055-1.383,1.055c-0.455,0-0.975-0.059-1.561-0.176c-2.285-0.088-4-0.133-5.143-0.133l-2.855,0.045
		c-10.312,16.055-15.639,24.396-15.975,25.027c-0.338,0.629-0.703,1.105-1.098,1.428c-0.396,0.322-0.887,0.482-1.473,0.482
		s-1.406-0.096-2.461-0.285c-1.055-0.191-1.846-0.426-2.373-0.703s-0.791-0.629-0.791-1.055c0-0.424,0.131-1.033,0.395-1.824
		c0.703-1.963,5.625-9.535,14.766-22.719c-5.947,0.293-10.664,0.6-14.15,0.922L100.935,136.502z M156.746,96.82
		c-0.469,0.146-1.041,0.381-1.715,0.703L156.746,96.82z"/>
	<path fill="#BDE1E4" d="M179.003,95.832c1.068,0.834,1.604,2.072,1.604,3.713s-0.908,4.211-2.725,7.713
		c-1.816,3.5-3.999,7.074-6.548,10.723c-2.549,3.646-5.435,7.521-8.657,11.623c-5.098,6.504-9.99,12.348-14.678,17.533
		c-0.029,0.352-0.154,1.004-0.373,1.957c-0.221,0.951-0.33,1.91-0.33,2.877s0.446,1.84,1.34,2.615c0.894,0.777,2,1.164,3.318,1.164
		s2.731-0.469,4.24-1.406s2.82-1.977,3.934-3.119c2.93-3.018,4.746-4.527,5.449-4.527s1.055,1.07,1.055,3.209v0.879
		c0,1.143-0.205,1.977-0.615,2.504c-2.461,3.018-5.229,5.268-8.306,6.746s-5.991,2.219-8.745,2.219s-4.849-0.842-6.284-2.525
		c-1.436-1.686-2.153-3.992-2.153-6.922c0-5.713,1.53-12.43,4.592-20.148c3.062-7.721,6.512-14.291,10.35-19.711
		c8.643-12.246,15.249-18.369,19.819-18.369C176.696,94.578,177.933,94.996,179.003,95.832z M173.312,101.873
		c0-0.439-0.146-0.658-0.439-0.658c-1.025,0-3.721,2.93-8.086,8.789s-7.522,10.531-9.471,14.018s-3.786,7.867-5.515,13.141
		c3.457-4.102,8.239-10.496,14.349-19.182C170.257,109.293,173.312,103.924,173.312,101.873z"/>
	<path fill="#BDE1E4" d="M191.901,127.055c0.879,0,1.78,0.395,2.702,1.186c0.924,0.791,1.385,2,1.385,3.627
		c0,1.625-0.571,3.734-1.714,6.328c-1.143,2.592-2.71,5.229-4.702,7.91c-1.992,2.68-4.183,5.199-6.57,7.559
		c-2.388,2.357-4.965,4.291-7.734,5.801c-2.768,1.508-5.28,2.262-7.536,2.262s-4.065-0.711-5.427-2.131
		c-1.363-1.42-2.044-3.398-2.044-5.932c0-2.535,0.622-5.34,1.868-8.416c1.244-3.076,2.849-5.793,4.812-8.152
		c1.963-2.357,4.087-4.475,6.372-6.35c4.775-3.838,8.965-5.758,12.568-5.758c1.611,0,2.827,0.396,3.647,1.188
		c0.293,0.264,0.439,0.498,0.439,0.703v0.264C190.377,127.084,191.022,127.055,191.901,127.055z M187.462,132.898h-0.308
		c-1.025,0-1.538-0.746-1.538-2.24c-2.139,0.703-4.38,1.934-6.724,3.691s-4.438,3.838-6.284,6.24
		c-3.75,4.805-5.654,8.861-5.713,12.172c0,1.641,0.601,2.461,1.802,2.461s2.988-0.791,5.361-2.373s4.724-3.838,7.054-6.768
		c2.328-2.93,4.071-5.471,5.229-7.623c1.157-2.154,1.736-3.619,1.736-4.395C188.078,133.287,187.873,132.898,187.462,132.898z"/>
	<path fill="#BDE1E4" d="M240.68,127.889l-0.527-2.109c0-1.201,0.417-2.145,1.253-2.834c0.834-0.688,1.882-1.033,3.142-1.033
		c2.461,0,3.691,1.568,3.691,4.703c0,2.256-1.113,5.369-3.34,9.338c-2.227,3.971-4.856,7.809-7.888,11.514
		c-3.033,3.707-6.248,6.93-9.646,9.668c-3.398,2.74-6.014,4.109-7.844,4.109c-1.832,0-3.128-0.498-3.89-1.494
		s-1.143-1.955-1.143-2.879c0-0.922,0.044-1.795,0.132-2.615c0.322-2.871,1.113-5.609,2.373-8.217
		c-3.135,4.102-6.504,7.785-10.107,11.053c-3.604,3.266-6.621,4.898-9.053,4.898c-1.172,0-2.109-0.352-2.812-1.055
		s-1.055-1.896-1.055-3.58c0-1.686,1.011-4.85,3.032-9.492c2.021-4.645,3.955-8.373,5.801-11.186
		c-0.674,0.41-1.268,0.615-1.78,0.615s-1.069-0.285-1.67-0.855c-0.601-0.572-0.9-1.02-0.9-1.342s0.22-0.791,0.659-1.406
		s2.124-2.131,5.054-4.547c2.93-2.418,4.937-3.627,6.021-3.627s2.116,0.205,3.099,0.615c0.98,0.41,1.472,0.975,1.472,1.693
		c0,0.717-2.036,4.898-6.108,12.545s-6.108,11.793-6.108,12.438c0,0.088,0.029,0.131,0.088,0.131c0.615,0,3.684-3.135,9.206-9.404
		s9.866-11.426,13.03-15.469c0.439-0.732,1.099-1.098,1.978-1.098l0.396,0.043l2.417-0.482c0.381,0,0.754,0.146,1.121,0.439
		c0.365,0.293,0.549,0.557,0.549,0.791s-0.521,1.289-1.561,3.164s-2.731,5.42-5.075,10.635s-3.516,8.877-3.516,10.986
		c0,0.527,0.19,0.791,0.571,0.791c1.113,0,3.435-2.014,6.965-6.043c3.53-4.027,6.409-7.889,8.636-11.58
		S240.68,129.412,240.68,127.889z"/>
</g>
<line fill="none" stroke="#BDE1E4" stroke-width="2" stroke-miterlimit="10" x1="65.06" y1="72.666" x2="280.955" y2="72.666"/>
</svg>
