<?xml version="1.0" encoding="utf-8"?>
<!-- Generator: Adobe Illustrator 16.0.0, SVG Export Plug-In . SVG Version: 6.00 Build 0)  -->
<!DOCTYPE svg PUBLIC "-//W3C//DTD SVG 1.1//EN" "http://www.w3.org/Graphics/SVG/1.1/DTD/svg11.dtd">
<svg version="1.1" id="Layer_1" xmlns="http://www.w3.org/2000/svg" xmlns:xlink="http://www.w3.org/1999/xlink" x="0px" y="0px"
	 width="346.01465px" height="175.3252px" viewBox="0 0 346.01465 175.3252" enable-background="new 0 0 346.01465 175.3252"
	 xml:space="preserve">
<g>
	<path fill="#1D1D1B" d="M7.92383,150.1084H9.7793c0.74805,0,1.36523-0.10547,1.85742-0.31055
		c0.49023-0.20312,0.91211-0.53516,1.2666-0.98633l11.75293-14.87695c0.49121-0.62695,1.00586-1.0625,1.54688-1.31055
		c0.53809-0.24219,1.22266-0.36914,2.04883-0.36914h6.83203L20.7373,149.95996c-0.44922,0.55078-0.88184,1.01172-1.2959,1.38477
		c-0.41016,0.375-0.85254,0.67969-1.3252,0.91211c0.64941,0.23828,1.23438,0.57227,1.75391,1.00195
		c0.51953,0.43359,1.02441,0.98242,1.51758,1.65234l14.78613,19.93945h-7.01074c-0.94238,0-1.64453-0.13086-2.10645-0.39453
		c-0.45996-0.26758-0.84961-0.6543-1.16211-1.16406L13.8457,157.55957c-0.39453-0.50977-0.83398-0.87891-1.32422-1.10352
		c-0.49219-0.22461-1.18945-0.33789-2.09375-0.33789H7.92383v18.73242H0v-42.62109h7.92383V150.1084z"/>
	<path fill="#1D1D1B" d="M84.72363,153.55371c0,3.125-0.52051,6.01367-1.56055,8.67773
		c-1.04297,2.66016-2.50488,4.96094-4.38965,6.9082c-1.88477,1.94141-4.15332,3.45703-6.80469,4.54688
		c-2.65137,1.0918-5.58789,1.63867-8.80859,1.63867s-6.16211-0.54688-8.82227-1.63867
		c-2.66016-1.08984-4.9375-2.60547-6.83203-4.54688c-1.89648-1.94727-3.36523-4.24805-4.40625-6.9082
		c-1.03906-2.66406-1.56152-5.55273-1.56152-8.67773c0-3.11914,0.52246-6.01367,1.56152-8.67383
		c1.04102-2.66016,2.50977-4.96484,4.40625-6.9082c1.89453-1.94531,4.17188-3.46289,6.83203-4.55273
		c2.66016-1.08789,5.60156-1.63281,8.82227-1.63281s6.15723,0.55078,8.80859,1.64844
		c2.65137,1.09961,4.91992,2.61914,6.80469,4.55078c1.88477,1.93555,3.34668,4.23438,4.38965,6.89453
		C84.20312,147.54004,84.72363,150.43457,84.72363,153.55371z M76.59375,153.55371c0-2.33594-0.31055-4.43359-0.92773-6.28906
		c-0.61914-1.85352-1.50977-3.42969-2.66602-4.72656c-1.16016-1.29688-2.56836-2.28906-4.22754-2.97656
		c-1.65918-0.68555-3.53027-1.03125-5.6123-1.03125c-2.08008,0-3.95703,0.3457-5.625,1.03125
		c-1.67188,0.6875-3.08789,1.67969-4.25684,2.97656s-2.06738,2.87305-2.69727,4.72656
		c-0.62695,1.85547-0.94043,3.95312-0.94043,6.28906c0,2.33789,0.31348,4.43359,0.94043,6.29102
		c0.62988,1.85547,1.52832,3.42578,2.69727,4.71094c1.16895,1.28711,2.58496,2.27539,4.25684,2.96289
		c1.66797,0.68555,3.54492,1.03125,5.625,1.03125c2.08203,0,3.95312-0.3457,5.6123-1.03125
		c1.65918-0.6875,3.06738-1.67578,4.22754-2.96289c1.15625-1.28516,2.04688-2.85547,2.66602-4.71094
		C76.2832,157.9873,76.59375,155.8916,76.59375,153.55371z"/>
	<path fill="#1D1D1B" d="M119.17383,159.1377c0.28516,0.67578,0.56445,1.36133,0.8418,2.04883
		c0.27344-0.70703,0.55859-1.4043,0.85352-2.0918c0.29395-0.6875,0.60742-1.34766,0.94141-1.97656l12.60938-23.59375
		c0.1543-0.29688,0.31738-0.53125,0.48438-0.70703c0.16797-0.17773,0.35449-0.30469,0.56055-0.38477
		c0.20703-0.07812,0.43652-0.12695,0.69238-0.14648c0.25586-0.02148,0.55957-0.03125,0.91309-0.03125h5.97949v42.5957h-6.98145
		v-27.50977c0-0.51172,0.01562-1.07031,0.04297-1.67969c0.03027-0.60938,0.0752-1.22852,0.13477-1.85742l-12.87305,24.15625
		c-0.29492,0.54883-0.67773,0.97656-1.14941,1.28125c-0.47266,0.30273-1.02051,0.45508-1.64941,0.45508h-1.08984
		c-0.62988,0-1.17773-0.15234-1.64941-0.45508c-0.47266-0.30469-0.85449-0.73242-1.14941-1.28125l-13.05078-24.24609
		c0.07812,0.65039,0.13281,1.2832,0.16211,1.90234c0.03125,0.61719,0.04492,1.19141,0.04492,1.72461v27.50977h-6.98242v-42.5957
		h5.98047c0.35547,0,0.6582,0.00977,0.91309,0.03125c0.25391,0.01953,0.4873,0.06836,0.69238,0.14648
		c0.20703,0.08008,0.39844,0.20703,0.57422,0.38477c0.17773,0.17578,0.34473,0.41016,0.50098,0.70703l12.72754,23.6543
		C118.58008,157.80762,118.89062,158.45801,119.17383,159.1377z"/>
	<path fill="#1D1D1B" d="M179.85645,159.1377c0.28418,0.67578,0.56543,1.36133,0.83984,2.04883
		c0.27637-0.70703,0.56055-1.4043,0.85547-2.0918s0.60938-1.34766,0.94141-1.97656l12.60938-23.59375
		c0.15625-0.29688,0.32031-0.53125,0.48438-0.70703c0.16602-0.17773,0.35547-0.30469,0.5625-0.38477
		c0.20508-0.07812,0.4375-0.12695,0.68945-0.14648c0.25781-0.02148,0.5625-0.03125,0.91406-0.03125h5.98047v42.5957h-6.98242
		v-27.50977c0-0.51172,0.01367-1.07031,0.04492-1.67969s0.07422-1.22852,0.13281-1.85742l-12.87305,24.15625
		c-0.29297,0.54883-0.67871,0.97656-1.15039,1.28125c-0.46973,0.30273-1.02246,0.45508-1.64844,0.45508h-1.08887
		c-0.62988,0-1.17773-0.15234-1.65137-0.45508c-0.4707-0.30469-0.85352-0.73242-1.14746-1.28125l-13.0498-24.24609
		c0.07715,0.65039,0.13086,1.2832,0.16016,1.90234c0.03027,0.61719,0.0459,1.19141,0.0459,1.72461v27.50977h-6.98242v-42.5957
		h5.98047c0.35352,0,0.6582,0.00977,0.91113,0.03125c0.25684,0.01953,0.48828,0.06836,0.69531,0.14648
		c0.20508,0.08008,0.39551,0.20703,0.57324,0.38477c0.17676,0.17578,0.34277,0.41016,0.50098,0.70703l12.72559,23.6543
		C179.26465,157.80762,179.57227,158.45801,179.85645,159.1377z"/>
	<path fill="#1D1D1B" d="M259.08105,153.55371c0,3.125-0.51953,6.01367-1.56055,8.67773
		c-1.03906,2.66016-2.50586,4.96094-4.39062,6.9082c-1.88281,1.94141-4.15039,3.45703-6.80078,4.54688
		c-2.65234,1.0918-5.58789,1.63867-8.80859,1.63867c-3.22266,0-6.16211-0.54688-8.82422-1.63867
		c-2.66016-1.08984-4.93945-2.60547-6.83398-4.54688c-1.89648-1.94727-3.36328-4.24805-4.4043-6.9082
		c-1.03906-2.66406-1.5625-5.55273-1.5625-8.67773c0-3.11914,0.52344-6.01367,1.5625-8.67383
		c1.04102-2.66016,2.50781-4.96484,4.4043-6.9082c1.89453-1.94531,4.17383-3.46289,6.83398-4.55273
		c2.66211-1.08789,5.60156-1.63281,8.82422-1.63281c3.2207,0,6.15625,0.55078,8.80859,1.64844
		c2.65039,1.09961,4.91797,2.61914,6.80078,4.55078c1.88477,1.93555,3.35156,4.23438,4.39062,6.89453
		C258.56152,147.54004,259.08105,150.43457,259.08105,153.55371z M250.95215,153.55371c0-2.33594-0.30859-4.43359-0.92773-6.28906
		c-0.61719-1.85352-1.50781-3.42969-2.66602-4.72656c-1.16016-1.29688-2.56641-2.28906-4.22852-2.97656
		c-1.6582-0.68555-3.5293-1.03125-5.60938-1.03125c-2.08203,0-3.95898,0.3457-5.62695,1.03125
		c-1.66992,0.6875-3.08789,1.67969-4.25781,2.97656c-1.16797,1.29688-2.06641,2.87305-2.69336,4.72656
		c-0.63086,1.85547-0.94336,3.95312-0.94336,6.28906c0,2.33789,0.3125,4.43359,0.94336,6.29102
		c0.62695,1.85547,1.52539,3.42578,2.69336,4.71094c1.16992,1.28711,2.58789,2.27539,4.25781,2.96289
		c1.66797,0.68555,3.54492,1.03125,5.62695,1.03125c2.08008,0,3.95117-0.3457,5.60938-1.03125
		c1.66211-0.6875,3.06836-1.67578,4.22852-2.96289c1.1582-1.28516,2.04883-2.85547,2.66602-4.71094
		C250.64355,157.9873,250.95215,155.8916,250.95215,153.55371z"/>
	<path fill="#1D1D1B" d="M308.04004,153.55371c0,3.125-0.51758,5.99023-1.56055,8.60352
		c-1.03906,2.61328-2.50391,4.85938-4.38867,6.74414s-4.1543,3.34766-6.80273,4.39062
		c-2.6543,1.04297-5.58789,1.55859-8.81055,1.55859h-16.25781v-42.5957h16.25781c3.22266,0,6.15625,0.5293,8.81055,1.57812
		c2.64844,1.04883,4.91797,2.51562,6.80273,4.38867c1.88477,1.87695,3.34961,4.11914,4.38867,6.73242
		C307.52246,147.56348,308.04004,150.43457,308.04004,153.55371z M299.94043,153.55371c0-2.33594-0.31445-4.43359-0.94336-6.28906
		c-0.625-1.85352-1.51953-3.42773-2.67969-4.71289c-1.1582-1.28711-2.56641-2.27148-4.22852-2.95898
		c-1.6582-0.6875-3.5293-1.03125-5.61133-1.03125h-8.27734v29.98828h8.27734c2.08203,0,3.95312-0.3457,5.61133-1.03125
		c1.66211-0.6875,3.07031-1.67578,4.22852-2.96289c1.16016-1.28516,2.05469-2.85547,2.67969-4.71094
		C299.62598,157.9873,299.94043,155.8916,299.94043,153.55371z"/>
	<path fill="#1D1D1B" d="M346.01465,132.25488v6.30664h-18.88086v11.81055h14.875v6.09961h-14.875v12.04883h18.88086v6.33008
		h-26.86523v-42.5957H346.01465z"/>
</g>
<g>
	<path fill="#1D1D1B" d="M222.92285,81.01562l6.16016-3.29639L218.0127,57.02734l-1.70703-3.19287l-0.00195,0.00049L187.50098,0
		l-64.4082,34.45996l0,0l-6.16016,3.2959l41.58203,77.71973l6.16016-3.29688l-9.48242-17.72266l58.24805-31.1626L222.92285,81.01562
		z M195.74316,30.21387l-58.24805,31.16406l-11.10547-20.75732l58.24707-31.16455L195.74316,30.21387z M140.79102,67.53809
		l58.24707-31.16357l11.10547,20.75684L151.89648,88.2959L140.79102,67.53809z"/>
	<path fill="#1D1D1B" d="M164.05859,33.95459c-0.57471-1.07227-1.6875-1.73779-2.9043-1.73779
		c-0.53711,0-1.07227,0.13428-1.5498,0.38916c-0.77441,0.41455-1.34082,1.10645-1.5957,1.94678
		c-0.25439,0.8418-0.16553,1.73193,0.24805,2.50586c0.57324,1.07324,1.68555,1.73926,2.90332,1.73926
		c0.53613,0,1.07324-0.13428,1.55029-0.38916C164.30957,37.55078,164.91455,35.55322,164.05859,33.95459z"/>
	<path fill="#1D1D1B" d="M178.45898,60.87305c-0.5752-1.07227-1.6875-1.73779-2.9043-1.73779
		c-0.53711,0-1.07227,0.13428-1.5498,0.38916c-0.77441,0.41455-1.34082,1.10645-1.5957,1.94678
		c-0.25439,0.8418-0.16553,1.73193,0.24805,2.50586c0.57324,1.07324,1.68555,1.73926,2.90332,1.73926
		c0.53613,0,1.07324-0.13428,1.5498-0.38916C178.70996,64.46924,179.31543,62.47168,178.45898,60.87305z"/>
</g>
</svg>
